P2
# image.pgm
23 23
255
128 128 128 128 128 0 255 255 255 255 255 0 128 128 128 128 128 0 128 128 128 128 128 
128 128 128 128 128 0 255 255 255 255 255 0 128 128 128 128 128 0 128 128 128 128 128 
128 128 128 128 128 0 255 255 255 255 255 0 128 128 128 128 128 0 128 128 128 128 128 
128 128 128 128 128 0 255 255 255 255 255 0 128 128 128 128 128 0 128 128 128 128 128 
128 128 128 128 128 0 255 255 255 255 255 0 128 128 128 128 128 0 128 128 128 128 128 
0 0 0 0 0 0 0 0 0 0 0 0 0 0 0 0 0 0 0 0 0 0 0 
0 0 0 0 0 0 0 0 0 0 0 0 0 0 0 0 0 0 255 255 255 255 255 
0 0 0 0 0 0 0 0 0 0 0 0 0 0 0 0 0 0 255 255 255 255 255 
0 0 0 0 0 0 0 0 0 0 0 0 0 0 0 0 0 0 255 255 255 255 255 
0 0 0 0 0 0 0 0 0 0 0 0 0 0 0 0 0 0 255 255 255 255 255 
0 0 0 0 0 0 0 0 0 0 0 0 0 0 0 0 0 0 255 255 255 255 255 
0 0 0 0 0 0 0 0 0 0 0 0 0 0 0 0 0 0 0 0 0 0 0 
255 255 255 255 255 0 255 255 255 255 255 0 128 128 128 128 128 0 255 255 255 255 255 
255 255 255 255 255 0 255 255 255 255 255 0 128 128 128 128 128 0 255 255 255 255 255 
255 255 255 255 255 0 255 255 255 255 255 0 128 128 128 128 128 0 255 255 255 255 255 
255 255 255 255 255 0 255 255 255 255 255 0 128 128 128 128 128 0 255 255 255 255 255 
255 255 255 255 255 0 255 255 255 255 255 0 128 128 128 128 128 0 255 255 255 255 255 
0 0 0 0 0 0 0 0 0 0 0 0 0 0 0 0 0 0 0 0 0 0 0 
255 255 255 255 255 0 255 255 255 255 255 0 255 255 255 255 255 0 0 0 0 0 0 
255 255 255 255 255 0 255 255 255 255 255 0 255 255 255 255 255 0 0 0 0 0 0 
255 255 255 255 255 0 255 255 255 255 255 0 255 255 255 255 255 0 0 0 0 0 0 
255 255 255 255 255 0 255 255 255 255 255 0 255 255 255 255 255 0 0 0 0 0 0 
255 255 255 255 255 0 255 255 255 255 255 0 255 255 255 255 255 0 0 0 0 0 0 
