P2
# image.pgm
23 23
255
128 128 128 129 128 0 255 254 255 254 255 0 254 255 255 254 254 0 255 255 254 255 255 
128 128 128 129 129 0 255 255 254 255 255 1 255 254 255 255 254 0 254 255 255 254 255 
128 128 128 128 128 0 254 255 254 254 255 1 254 254 254 254 255 0 255 255 254 254 255 
128 129 128 129 128 0 254 255 255 254 254 1 255 254 254 255 255 0 254 255 254 255 254 
129 129 128 128 128 0 254 254 254 255 254 0 255 255 255 254 254 1 255 254 254 255 254 
0 1 1 1 0 1 0 0 0 0 1 1 0 0 0 1 0 0 1 1 0 1 0 
255 254 254 255 255 0 0 1 0 0 1 1 255 254 255 254 254 0 254 255 254 254 254 
254 254 254 254 255 0 0 0 0 0 0 0 255 254 254 255 255 0 255 255 255 255 255 
255 255 255 255 255 0 0 0 0 0 0 0 255 255 255 255 255 0 255 255 255 255 255 
255 255 255 255 255 0 0 0 0 0 0 0 255 255 255 255 255 0 255 255 255 255 255 
255 255 255 255 255 0 0 0 0 0 0 0 255 255 255 255 255 0 255 255 255 255 255 
0 0 0 0 0 0 0 0 0 0 0 0 0 0 0 0 0 0 0 0 0 0 0 
255 255 255 255 255 0 255 255 255 255 255 0 128 128 128 128 128 0 255 255 255 255 255 
255 255 255 255 255 0 255 255 255 255 255 0 128 128 128 128 128 0 255 255 255 255 255 
255 255 255 255 255 0 255 255 255 255 255 0 128 128 128 128 128 0 255 255 255 255 255 
255 255 255 255 255 0 255 255 255 255 255 0 128 128 128 128 128 0 255 255 255 255 255 
255 255 255 255 255 0 255 255 255 255 255 0 128 128 128 128 128 0 255 255 255 255 255 
0 0 0 0 0 0 0 0 0 0 0 0 0 0 0 0 0 0 0 0 0 0 0 
255 255 255 255 255 0 255 255 255 255 255 0 255 255 255 255 255 0 255 255 255 255 255 
255 255 255 255 255 0 255 255 255 255 255 0 255 255 255 255 255 0 255 255 255 255 255 
255 255 255 255 255 0 255 255 255 255 255 0 255 255 255 255 255 0 255 255 255 255 255 
255 255 255 255 255 0 255 255 255 255 255 0 255 255 255 255 255 0 255 255 255 255 255 
255 255 255 255 255 0 255 255 255 255 255 0 255 255 255 255 255 0 255 255 255 255 255 

